# xmcd
#
# Track frame offsets:
#	150
#	14561
#	29479
#	45923
#	65539
#	81659
#	97769
#	111373
#	125213
#	139510
#	157797
#
# Disc length: 2323 seconds
# Revision: 0
# Processed by: cddbd v1.5.2PL0 Copyright (c) Steve Scherf et al.
# Submitted via: dBpowerAMP V12.0
#
DISCID=8e09110b
DTITLE=Annie Blanchard - Annie Blanchard
DYEAR=2013
DGENRE=Country
TTITLE0=Je dirai je t'aime
TTITLE1=Retrouver l'horizon
TTITLE2=Place à l'amour
TTITLE3=En attendant
TTITLE4=Tout de nous
TTITLE5=I still recall (avec Sébastien Plante)
TTITLE6=Je n'aimerai que toi
TTITLE7=Mon étoile
TTITLE8=Et si...
TTITLE9=L'étranger du dimanche
TTITLE10=Je vous vois encore mieux
EXTD=
EXTT0=
EXTT1=
EXTT2=
EXTT3=
EXTT4=
EXTT5=
EXTT6=
EXTT7=
EXTT8=
EXTT9=
EXTT10=
PLAYORDER=
